<svg width="229" height="123" viewBox="0 0 229 123" fill="none" xmlns="http://www.w3.org/2000/svg">
<path d="M142.538 9H29.2773C17.9584 9 8.56128 17.6333 9.42832 28.9189C10.7779 46.4854 15.9442 72.016 33.3287 90C62.3288 120 112.724 118.433 134.452 99.5648C149.027 86.9085 159.07 50.4805 160.65 27.8677C161.376 17.4623 152.969 9 142.538 9Z" fill="#AA8A72"/>
<path d="M160.65 27.8677V27.8677C161.376 17.4623 152.969 9 142.538 9H29.2773C17.9584 9 8.56128 17.6333 9.42832 28.9189C10.7779 46.4854 15.9442 72.016 33.3287 90C62.3288 120 112.724 118.433 134.452 99.5648C149.027 86.9085 159.07 50.4805 160.65 27.8677ZM160.65 27.8677C160.65 27.8677 228.107 9 218.367 56.5465C208.627 104.093 152.537 67.1124 152.537 67.1124" stroke="#2B2621" stroke-width="18"/>
<path d="M91.719 51.8199C98.5836 68.0054 96.9201 84.192 88.0036 87.9737C79.0871 91.7554 66.294 81.7001 59.4294 65.5146C52.5648 49.3291 54.2283 33.1425 63.1448 29.3608C72.0613 25.5791 84.8544 35.6344 91.719 51.8199Z" fill="#A73636"/>
<path d="M111.436 66.7931C103.969 82.6649 90.6939 92.0975 81.785 87.8613C72.8761 83.6251 71.707 67.3244 79.1737 51.4527C86.6405 35.5809 99.9156 26.1483 108.824 30.3845C117.733 34.6207 118.902 50.9214 111.436 66.7931Z" fill="#A73636"/>
</svg>
