<svg width="228" height="123" viewBox="0 0 228 123" fill="none" xmlns="http://www.w3.org/2000/svg">
<path d="M160.321 27.8677V27.8677C161.048 17.4623 152.64 9 142.209 9H28.9486C17.6297 9 8.23255 17.6333 9.09958 28.9189C10.4492 46.4854 15.6154 72.016 33 90C62.0001 120 112.395 118.433 134.123 99.5648C148.698 86.9085 158.741 50.4805 160.321 27.8677ZM160.321 27.8677C160.321 27.8677 227.778 9 218.038 56.5465C208.298 104.093 152.208 67.1124 152.208 67.1124" stroke="#2B2621" stroke-width="18"/>
<path d="M75.0321 89.9748C79.4421 92.8505 84.3429 94.5325 88.9088 93.9401C93.7294 94.1304 98.6049 91.8063 102.783 88.2433C108.253 83.5787 113.126 76.3554 116.288 67.7293C119.451 59.1028 120.407 50.429 119.259 43.3128C118.129 36.3046 114.792 30.1084 108.704 27.8478C102.609 25.5846 96.0595 28.1192 90.6705 32.7146C88.7454 34.3561 86.8945 36.3145 85.166 38.5394C83.1831 36.5923 81.1216 34.917 79.0339 33.5557C73.1274 29.7042 66.3407 27.9939 60.6569 31.0214C54.9732 34.049 52.6058 40.6353 52.5064 47.6858C52.4053 54.8585 54.5829 63.3018 58.9072 71.4202C63.2316 79.5385 69.0234 86.0567 75.0321 89.9748Z" stroke="#A73636" stroke-width="6"/>
</svg>
